<svg width="37" height="32" viewBox="0 0 37 32" fill="none" xmlns="http://www.w3.org/2000/svg">
<path d="M35.8246 10.862C34.5972 11.5165 33.2999 12.0249 31.9585 12.3772C30.4527 5.10884 24.8838 0.0517578 18.3428 0.0517578H18.2347C15.3756 0.184498 13.2599 1.58635 12.4149 3.89149C11.2871 6.96393 12.7167 11.1501 15.9666 14.3132C18.6573 16.9259 22.7585 18.4605 26.9677 18.4378C26.2857 21.1303 24.6634 23.4766 22.405 25.037C20.1466 26.5973 17.4072 27.2645 14.7005 26.9134C11.9939 26.5622 9.50584 25.2168 7.70306 23.1296C5.90027 21.0423 4.90653 18.3565 4.90817 15.5759C4.90817 12.9858 6.04543 9.13633 9.25081 6.75996L9.56849 6.52687V0.699269L9.28261 0.854665C8.27975 1.42954 7.30632 2.0563 6.36626 2.73246C1.67098 6.21284 0.0126953 11.6552 0.0126953 15.592C0.0174583 19.7867 1.59692 23.8205 4.427 26.8662C7.25707 29.9119 11.1233 31.7386 15.2329 31.9718C19.3424 32.2049 23.3837 30.8267 26.528 28.12C29.6723 25.4132 31.6812 21.583 32.1427 17.4148C32.5049 17.282 33.0036 17.1428 33.5278 16.9939C34.4967 16.7187 35.4973 16.4338 36.0247 16.1133L36.1168 16.0583V10.7325L35.8246 10.862ZM27.1297 13.4326C24.7312 13.4746 21.4972 12.7851 19.3529 10.6968C17.504 8.89676 16.6495 6.63372 17.0085 5.64626C17.1705 5.21243 17.8598 5.08294 18.3999 5.05056C21.9642 5.0797 26.1639 8.21686 27.1297 13.4326Z" fill="#6148f9"/>
</svg>

